PathFileType	4	(X/Y/Z)	Walk1_0-155.trc
DataRate	CameraRate	NumFrames	NumMarkers	Units	OrigDataRate	OrigDataStartFrame	OrigNumFrames
30	30	8	22	m	30	116	155
Frame#	Time	Hip			RHip			RKnee			RAnkle			RBigToe			RSmallToe			RHeel			LHip			LKnee			LAnkle			LBigToe			LSmallToe			LHeel			Neck			Head			Nose			RShoulder			RElbow			RWrist			LShoulder			LElbow			LWrist		
		X1	Y1	Z1	X2	Y2	Z2	X3	Y3	Z3	X4	Y4	Z4	X5	Y5	Z5	X6	Y6	Z6	X7	Y7	Z7	X8	Y8	Z8	X9	Y9	Z9	X10	Y10	Z10	X11	Y11	Z11	X12	Y12	Z12	X13	Y13	Z13	X14	Y14	Z14	X15	Y15	Z15	X16	Y16	Z16	X17	Y17	Z17	X18	Y18	Z18	X19	Y19	Z19	X20	Y20	Z20	X21	Y21	Z21	X22	Y22	Z22
117	3.9	0.993869965962197	0.8967693113478354	0.4131016738693999	0.9791981921945305	0.8927600754723677	0.5233930199403882	0.912411682188763	0.5277719554970517	0.4813430151818108	0.8547448289659331	0.11221738816044609	0.4432883170772012	0.0	0.0	0.0	0.0	0.0	0.0	0.0	0.0	0.0	1.0105458017752122	0.901638960292412	0.30230741025695035	1.1983856385121716	0.5712457794032431	0.3001214330480219	1.0304333032237232	0.20695213495963177	0.31991233779176054	0.0	0.0	0.0	0.0	0.0	0.0	0.0	0.0	0.0	0.8864394865941245	1.4677059176184457	0.3861085101762095	1.0381902832564993	1.782390894710957	0.4244629090254427	1.0895107486022255	1.6717200083671	0.39290607586560694	0.8895713510347628	1.4659548999623673	0.5718770285819353	0.9966955307704323	1.1884959459590079	0.652398492660514	1.2616241584807093	0.9700349469607004	0.6459965129375435	0.9200497148837303	1.4746348593186616	0.23258217462250164	0.8600810650715641	1.1660295313422535	0.15142434647751157	0.9172375012657165	0.9083499182405883	0.12153881414678526
118	3.933333333333333	1.0313340185956557	0.8931494432937962	0.41438937707993556	1.012998410131708	0.8896288234593809	0.5240320659180366	0.9292456173788803	0.5258592443817763	0.48159771251432143	0.8553204578931198	0.11353770547484583	0.4431348236512458	0.0	0.0	0.0	0.0	0.0	0.0	0.0	0.0	0.0	1.051506083737865	0.897709248974513	0.3042895139889466	1.254151503618853	0.5686103973938221	0.3131017309708606	1.149751774397269	0.17406170365446513	0.31817623326358874	0.0	0.0	0.0	0.0	0.0	0.0	0.0	0.0	0.0	0.9292555324732789	1.465759454356012	0.3874533990961547	1.0794990577744594	1.7794162235508213	0.42161659535603185	1.1343376107893295	1.6674919525162186	0.38887391519476244	0.9345473598593481	1.4654117187168094	0.5729191195857033	1.0490237086049843	1.1931990077859298	0.6570391881624735	1.3232933738044548	0.990170788200127	0.6480537312177898	0.9596609987576726	1.47062426498699	0.23304544196661614	0.8954511231434895	1.1628344893098326	0.1560655300578634	0.9440578967482948	0.9023394955826446	0.11431128496017824
119	3.966666666666667	1.0709706007501834	0.885731133964015	0.4155483672421204	1.0497946393550635	0.8830305536353878	0.523630566658649	0.9491004159996514	0.5214932505429825	0.4814786596135855	0.8556514877356941	0.11462175545247648	0.44285964972429165	0.0	0.0	0.0	0.0	0.0	0.0	0.0	0.0	0.0	1.0935947491762938	0.8896936200159735	0.3071291887510774	1.3030097244715133	0.5593017307564181	0.32427919993421445	1.264073892898985	0.14873116388230787	0.31474383502279085	0.0	0.0	0.0	0.0	0.0	0.0	0.0	0.0	0.0	0.9728975693370417	1.4613227488068883	0.38761011246798144	1.1216899372313112	1.7745397772547227	0.4188355903251771	1.183749245604616	1.6613028402108956	0.3835512406097885	0.9795931258810637	1.462245110958827	0.572598890243878	1.0994499577296941	1.1939282163553198	0.6596929805139644	1.3799457679861717	1.0071836043954547	0.6489375193795467	1.0006326102824772	1.4643813816602738	0.2323349928166561	0.9380368731734472	1.157346889297083	0.16218998811388227	0.9745814426362936	0.8948818888676714	0.1070054527295757
120	4.0	1.1131097164374801	0.8756945270810765	0.41633215983629773	1.0900131167574534	0.8740021442550803	0.522344796907836	0.9734597401927807	0.5152957225786492	0.4810998508077283	0.8566212761072118	0.11648285897469217	0.44271977767767823	0.0	0.0	0.0	0.0	0.0	0.0	0.0	0.0	0.0	1.1371801511148623	0.8788669241120862	0.3101201064715427	1.3475715834764244	0.5462598345628066	0.33290895802264175	1.3672416457122532	0.1320202293873312	0.3113493930000457	0.0	0.0	0.0	0.0	0.0	0.0	0.0	0.0	0.0	1.0171934199059987	1.4548484660910406	0.38607516088860844	1.164435612347155	1.7681779491341465	0.4160974127997501	1.2362286248612275	1.6540647322467317	0.3776123290814458	1.0246273481941222	1.4567711796392349	0.5706197989611198	1.1483498133589107	1.190729352353518	0.6596557362463298	1.4353690377623183	1.0195115397844008	0.6474181083220826	1.0444780617266998	1.4568844875937115	0.23143333954140205	0.9867577053099571	1.1499151395480889	0.16893693047429692	1.0085464334538359	0.8866380272682707	0.10040625530708011
121	4.033333333333333	1.1580370337861783	0.8647034900104229	0.4165071794886688	1.1337558502183525	0.8640641947333334	0.5203765330754391	1.0043073150089383	0.5080870805505613	0.4808012708964968	0.859515608371591	0.12099893380033358	0.4431384156069482	0.0	0.0	0.0	0.0	0.0	0.0	0.0	0.0	0.0	1.182877051857649	0.8669971141219094	0.3125402427519252	1.3907930645128106	0.5332265439349193	0.33873937955726285	1.4538864823335675	0.12182782413999925	0.30957082077574183	0.0	0.0	0.0	0.0	0.0	0.0	0.0	0.0	0.0	1.0619679916008378	1.4470350544009125	0.3827924183064503	1.2073598885127177	1.7609453783535791	0.41296624995113523	1.2889797331014992	1.6472774424101844	0.3719050537851416	1.0695755525503456	1.4496498604939458	0.5669126827633698	1.1957210147877801	1.1842181146749977	0.6566938666198648	1.488933312607894	1.025826156855562	0.6432499001372911	1.0917572769118933	1.4491372737412291	0.23111459322544514	1.039747105475704	1.1412867068760169	0.17462580112343684	1.0471789705746524	0.8778483068093887	0.09438726497042071
122	4.066666666666666	1.20585799979995	0.854631142177666	0.41559111191202575	1.1809255701920893	0.8549685463778668	0.5176615522603312	1.0437884284288077	0.500896453800067	0.48111825737035463	0.8661609978001145	0.1304261151942194	0.44463870986745807	0.0	0.0	0.0	0.0	0.0	0.0	0.0	0.0	0.0	1.2310876432389035	0.856064022478038	0.31346115418844767	1.434207046077764	0.5230908522256615	0.3413682954563769	1.5207914761364738	0.11511467955384092	0.31001325146519876	0.0	0.0	0.0	0.0	0.0	0.0	0.0	0.0	0.0	1.1070045488159563	1.4387462903209656	0.378178378298419	1.2501188048655991	1.753688540926576	0.40895061113351044	1.3394502875387986	1.6425575636927578	0.36713969470748076	1.114360757908682	1.441805468031677	0.5616990986129724	1.241211018411645	1.1754317501387932	0.6510984699979261	1.5377489962602755	1.025416820323113	0.6369008099154436	1.1410167250428052	1.441945805142079	0.23101664740655076	1.0952876116190335	1.132469432788356	0.1777294783190889	1.092624981159023	0.8687844254245902	0.0884624107684376
123	4.1	1.2563756980491831	0.8470911908214767	0.4129580665923871	1.2313445793590156	0.848271261627278	0.513918939615092	1.093635297880281	0.49477150701623424	0.48257634328911597	0.8790245715780584	0.14651436526898434	0.4476418513960976	0.0	0.0	0.0	0.0	0.0	0.0	0.0	0.0	0.0	1.2816204583719204	0.8477454296161793	0.3119149976627239	1.477401109457356	0.5168180317757346	0.34044071851156854	1.5678151083999872	0.10994687199156221	0.31229901304923824	0.0	0.0	0.0	0.0	0.0	0.0	0.0	0.0	0.0	1.151993368424839	1.4309577585957216	0.37294660989192646	1.2924408372058462	1.7474364324532543	0.4039092778333042	1.386576045439335	1.6409620733800607	0.3635676222476923	1.1588878986615658	1.4343062867067085	0.5555846401800948	1.284380168240749	1.165706405808619	0.6436072966256383	1.579431242906432	1.018502549124237	0.6294087232436093	1.1898759714911469	1.4359562855100336	0.2302490444096326	1.1520983069859287	1.1244759217457152	0.1778070407322474	1.1462019647434032	0.8602689944616634	0.0833192344726834
124	4.133333333333334	1.3089552268017028	0.8430450738495308	0.40827655758260856	1.284652408325809	0.8449644933520304	0.509045747627029	1.1545306927014236	0.4905593641176018	0.48545922077720327	0.9009150928761586	0.16988404216459396	0.4522357415986529	0.0	0.0	0.0	0.0	0.0	0.0	0.0	0.0	0.0	1.3335524551188467	0.8429776532637249	0.307367355461893	1.518491956926387	0.5135121028145478	0.3361354782073787	1.5975822952497496	0.10565549164216284	0.31543745196478856	0.0	0.0	0.0	0.0	0.0	0.0	0.0	0.0	0.0	1.1965062234084725	1.424740623545682	0.3677832953129428	1.3342409806666606	1.7431727775912331	0.3982189236081496	1.4303184206166983	1.64248364991531	0.36108299536588556	1.2029300464696588	1.4282808051160296	0.5494202108456157	1.3250390854207272	1.1565004885155465	0.635230539889587	1.612711974703824	1.0060484143339306	0.6220219971604776	1.236635258311405	1.431851727142486	0.2282926084735448	1.2089293793111602	1.1181239586257172	0.17550141342580808	1.20747482691295	0.8533728366172756	0.08111718461309082
